<svg width="43" height="30" viewBox="0 0 43 30" fill="none" xmlns="http://www.w3.org/2000/svg">
<path d="M37.2001 3.98364H5.31434C3.36577 3.98364 1.77148 5.0685 1.77148 6.39443V20.8591C1.77148 22.1851 3.36577 23.2699 5.31434 23.2699H14.1715V25.6807H28.3429V23.2699H37.2001C39.1486 23.2699 40.7252 22.1851 40.7252 20.8591L40.7429 6.39443C40.7429 5.0685 39.1486 3.98364 37.2001 3.98364ZM37.2001 20.8591H5.31434V6.39443H37.2001V20.8591ZM7.08577 17.243V19.6537H10.6286C10.6286 18.3158 9.05205 17.243 7.08577 17.243ZM7.08577 13.6268V15.3505C10.5755 15.3505 13.4098 17.2791 13.4098 19.6537H15.9429C15.9429 16.3269 11.9749 13.6268 7.08577 13.6268ZM7.08577 10.0106V11.7584C13.4806 11.7584 18.6886 15.2902 18.6886 19.6537H21.2572C21.2572 14.3259 14.8978 10.0106 7.08577 10.0106Z" fill="black"/>
</svg>
