<svg width="42" height="42" viewBox="0 0 42 42" fill="none" xmlns="http://www.w3.org/2000/svg">
<path d="M12.25 19.25H15.75V22.75H12.25V19.25ZM12.25 26.25H15.75V29.75H12.25V26.25ZM19.25 19.25H22.75V22.75H19.25V19.25ZM19.25 26.25H22.75V29.75H19.25V26.25ZM26.25 19.25H29.75V22.75H26.25V19.25ZM26.25 26.25H29.75V29.75H26.25V26.25Z" fill="black"/>
<path d="M8.5 38.5H33C34.9303 38.5 36.5 36.9302 36.5 35V10.5C36.5 8.56975 34.9303 7 33 7H29.5V3.5H26V7H15.5V3.5H12V7H8.5C6.56975 7 5 8.56975 5 10.5V35C5 36.9302 6.56975 38.5 8.5 38.5ZM33 14L33.0017 35H8.5V14H33Z" fill="black"/>
</svg>
