<svg width="48" height="48" viewBox="0 0 48 48" fill="none" xmlns="http://www.w3.org/2000/svg">
<path d="M5.4975 43.4025C6.01125 43.8 7.4925 41.2387 13.0725 40.8975C19.0462 40.53 25.6575 45.2812 34.7137 45.2812C42.7425 45.2812 46.9012 41.3512 46.6162 40.725C46.425 40.3087 43.2562 39.5437 39.6112 37.65C35.2275 35.3737 30.6112 33.0938 27.0825 27.9675C24.8212 24.6863 23.2087 20.9062 25.4325 17.9437C27.6525 14.9812 33.2925 16.35 33.2925 16.35L25.605 8.03625L10.9687 12.0262L3.5625 30.5925L4.36125 40.0463L5.4975 43.4025Z" fill="#152C5B"/>
<path d="M22.2225 13.5412C22.2225 13.5412 24.0112 14.1112 26.4075 15.36C30.3937 17.4412 32.8087 20.715 35.2725 20.9175C37.83 21.1237 39.1387 19.65 38.58 16.575C38.0587 13.7062 33.825 10.3387 33.825 10.3387C33.825 10.3387 37.6912 11.0662 37.6912 8.85C37.6912 6.57375 35.6062 5.47875 32.325 4.35C30.1387 3.6 24.2587 1.935 16.3762 4.92C12.9862 6.2025 8.84625 8.5725 5.70375 13.1137C1.59375 19.0537 0.761248 26.7787 1.54125 32.6437C2.48625 39.7275 5.43375 43.38 5.505 43.41C5.57625 43.44 5.9625 35.0812 9.25875 31.455C12.0675 28.365 14.94 29.6325 18.3525 29.4637C22.3762 29.265 24.1725 25.11 21.1012 21.9412C18.465 19.2187 14.0962 19.4625 14.0962 19.4625C14.0962 19.4625 15.5437 18.885 18.2925 18.6375C21.45 18.3487 22.0725 16.515 22.2975 15.8287C22.7962 14.3137 22.2225 13.5412 22.2225 13.5412Z" fill="#152C5B"/>
<path d="M14.3063 13.6125C14.0963 12.375 17.7413 11.2575 21.5587 11.8575C27.4988 12.7913 32.2012 18.21 34.1963 19.0012C37.1362 20.1712 38.1712 17.7675 36.6975 15.165C35.1787 12.4762 31.1587 10.1888 31.3087 9.3C31.5787 7.72125 35.6963 10.125 35.9475 8.37C36.1162 7.2075 33.0412 5.535 30.12 4.78875C27.7687 4.18875 22.83 3.45 16.005 6.42375C7.1325 10.2975 3.29625 18.0037 2.6625 26.0775C2.0625 33.735 4.9875 39.4425 4.9875 39.4425C4.9875 39.4425 5.18625 33.7275 8.05125 30.5813C10.1437 28.2863 12.8287 27.4237 15.7425 27.9788C20.6025 28.9088 22.7213 25.395 20.385 22.8563C18.855 21.195 16.8937 20.6775 14.865 20.61C11.3587 20.4975 9.4725 21.6712 9.37125 21.2738C9.22125 20.67 11.1225 19.2712 13.5338 18.2662C16.7062 16.9462 20.535 17.85 21.135 15.195C21.4275 13.9013 20.6963 13.1925 18.6037 13.0388C15.96 12.8475 14.3213 13.7025 14.3063 13.6125Z" fill="white"/>
</svg>
