<svg width="35" height="35" viewBox="0 0 35 35" fill="none" xmlns="http://www.w3.org/2000/svg">
<path d="M15.6208 1.98879C16.212 0.130782 18.8411 0.130785 19.4324 1.98879L22.1407 10.4991C22.4048 11.329 23.1756 11.8926 24.0465 11.8926H32.8976C34.825 11.8926 35.6371 14.3506 34.0892 15.4989L26.8574 20.8635C26.1709 21.3727 25.8839 22.2619 26.1431 23.0763L28.8885 31.7031C29.4772 33.5531 27.3503 35.0725 25.7911 33.9159L18.7182 28.6691C18.0105 28.1442 17.0427 28.1442 16.335 28.6691L9.26211 33.9159C7.7029 35.0725 5.576 33.5531 6.16472 31.7031L8.91004 23.0763C9.16922 22.2619 8.88222 21.3727 8.19578 20.8635L0.963994 15.4989C-0.583956 14.3506 0.228202 11.8926 2.15556 11.8926H11.0067C11.8776 11.8926 12.6484 11.329 12.9125 10.4991L15.6208 1.98879Z" fill="#FFED48"/>
</svg>
