<svg width="48" height="48" viewBox="0 0 48 48" fill="none" xmlns="http://www.w3.org/2000/svg">
<path d="M42 6.36743H6C3.8 6.36743 2 8.16743 2 10.3674V34.3674C2 36.5674 3.8 38.3674 6 38.3674H16V42.3674H32V38.3674H42C44.2 38.3674 45.98 36.5674 45.98 34.3674L46 10.3674C46 8.16743 44.2 6.36743 42 6.36743ZM42 34.3674H6V10.3674H42V34.3674ZM8 28.3674V32.3674H12C12 30.1474 10.22 28.3674 8 28.3674ZM8 22.3674V25.2274C11.94 25.2274 15.14 28.4274 15.14 32.3674H18C18 26.8474 13.52 22.3674 8 22.3674ZM8 16.3674V19.2674C15.22 19.2674 21.1 25.1274 21.1 32.3674H24C24 23.5274 16.82 16.3674 8 16.3674Z" fill="black"/>
</svg>
